<mxfile host="app.diagrams.net" agent="Mozilla/5.0 (Windows NT 10.0; Win64; x64) AppleWebKit/537.36 (KHTML, like Gecko) Chrome/138.0.0.0 Safari/537.36" version="28.0.4">
  <diagram name="PÃ¡gina-1" id="b9gsBTiAQnRDNvG3-Nrm">
    <mxGraphModel dx="443" dy="547" grid="1" gridSize="10" guides="1" tooltips="1" connect="1" arrows="1" fold="1" page="1" pageScale="1" pageWidth="827" pageHeight="1169" math="0" shadow="0">
      <root>
        <mxCell id="0" />
        <mxCell id="1" parent="0" />
        <mxCell id="p0EOxhNkVSFKZl7nwKyP-4" style="edgeStyle=none;curved=1;rounded=0;orthogonalLoop=1;jettySize=auto;html=1;entryX=0;entryY=0.5;entryDx=0;entryDy=0;fontSize=12;startSize=8;endSize=8;" edge="1" parent="1" source="p0EOxhNkVSFKZl7nwKyP-1" target="p0EOxhNkVSFKZl7nwKyP-2">
          <mxGeometry relative="1" as="geometry" />
        </mxCell>
        <mxCell id="p0EOxhNkVSFKZl7nwKyP-11" value="1. Abrir Apartado Contratos" style="edgeLabel;html=1;align=center;verticalAlign=middle;resizable=0;points=[];fontSize=12;" vertex="1" connectable="0" parent="p0EOxhNkVSFKZl7nwKyP-4">
          <mxGeometry x="-0.1106" y="1" relative="1" as="geometry">
            <mxPoint as="offset" />
          </mxGeometry>
        </mxCell>
        <mxCell id="p0EOxhNkVSFKZl7nwKyP-1" value=":Administrador" style="html=1;whiteSpace=wrap;" vertex="1" parent="1">
          <mxGeometry x="40" y="40" width="110" height="50" as="geometry" />
        </mxCell>
        <mxCell id="p0EOxhNkVSFKZl7nwKyP-6" style="edgeStyle=none;curved=1;rounded=0;orthogonalLoop=1;jettySize=auto;html=1;entryX=0.75;entryY=0;entryDx=0;entryDy=0;fontSize=12;startSize=8;endSize=8;" edge="1" parent="1" source="p0EOxhNkVSFKZl7nwKyP-2" target="p0EOxhNkVSFKZl7nwKyP-5">
          <mxGeometry relative="1" as="geometry" />
        </mxCell>
        <mxCell id="p0EOxhNkVSFKZl7nwKyP-12" value="2. Solicitar Listado Contratos" style="edgeLabel;html=1;align=center;verticalAlign=middle;resizable=0;points=[];fontSize=12;" vertex="1" connectable="0" parent="p0EOxhNkVSFKZl7nwKyP-6">
          <mxGeometry x="-0.079" relative="1" as="geometry">
            <mxPoint x="-8" as="offset" />
          </mxGeometry>
        </mxCell>
        <mxCell id="p0EOxhNkVSFKZl7nwKyP-2" value=":UI_Contratos" style="html=1;whiteSpace=wrap;" vertex="1" parent="1">
          <mxGeometry x="310" y="110" width="110" height="50" as="geometry" />
        </mxCell>
        <mxCell id="p0EOxhNkVSFKZl7nwKyP-8" style="edgeStyle=none;curved=1;rounded=0;orthogonalLoop=1;jettySize=auto;html=1;entryX=0;entryY=0.5;entryDx=0;entryDy=0;fontSize=12;startSize=8;endSize=8;" edge="1" parent="1" source="p0EOxhNkVSFKZl7nwKyP-5" target="p0EOxhNkVSFKZl7nwKyP-7">
          <mxGeometry relative="1" as="geometry">
            <Array as="points">
              <mxPoint x="190" y="350" />
            </Array>
          </mxGeometry>
        </mxCell>
        <mxCell id="p0EOxhNkVSFKZl7nwKyP-14" value="3. Consular Contratos" style="edgeLabel;html=1;align=center;verticalAlign=middle;resizable=0;points=[];fontSize=12;" vertex="1" connectable="0" parent="p0EOxhNkVSFKZl7nwKyP-8">
          <mxGeometry x="-0.2211" relative="1" as="geometry">
            <mxPoint x="15" y="-3" as="offset" />
          </mxGeometry>
        </mxCell>
        <mxCell id="p0EOxhNkVSFKZl7nwKyP-10" style="edgeStyle=none;curved=1;rounded=0;orthogonalLoop=1;jettySize=auto;html=1;entryX=0.75;entryY=1;entryDx=0;entryDy=0;fontSize=12;startSize=8;endSize=8;exitX=1;exitY=0.25;exitDx=0;exitDy=0;" edge="1" parent="1" source="p0EOxhNkVSFKZl7nwKyP-5" target="p0EOxhNkVSFKZl7nwKyP-2">
          <mxGeometry relative="1" as="geometry">
            <Array as="points">
              <mxPoint x="350" y="250" />
            </Array>
          </mxGeometry>
        </mxCell>
        <mxCell id="p0EOxhNkVSFKZl7nwKyP-16" value="5. Mostrar Contratos" style="edgeLabel;html=1;align=center;verticalAlign=middle;resizable=0;points=[];fontSize=12;" vertex="1" connectable="0" parent="p0EOxhNkVSFKZl7nwKyP-10">
          <mxGeometry x="-0.1054" y="12" relative="1" as="geometry">
            <mxPoint as="offset" />
          </mxGeometry>
        </mxCell>
        <mxCell id="p0EOxhNkVSFKZl7nwKyP-5" value=":GestionarContratos" style="html=1;whiteSpace=wrap;" vertex="1" parent="1">
          <mxGeometry x="35" y="220" width="120" height="50" as="geometry" />
        </mxCell>
        <mxCell id="p0EOxhNkVSFKZl7nwKyP-9" style="edgeStyle=none;curved=1;rounded=0;orthogonalLoop=1;jettySize=auto;html=1;entryX=1;entryY=0.5;entryDx=0;entryDy=0;fontSize=12;startSize=8;endSize=8;exitX=0.5;exitY=0;exitDx=0;exitDy=0;" edge="1" parent="1" source="p0EOxhNkVSFKZl7nwKyP-7" target="p0EOxhNkVSFKZl7nwKyP-5">
          <mxGeometry relative="1" as="geometry" />
        </mxCell>
        <mxCell id="p0EOxhNkVSFKZl7nwKyP-15" value="4. Devolver Listado Contratos" style="edgeLabel;html=1;align=center;verticalAlign=middle;resizable=0;points=[];fontSize=12;" vertex="1" connectable="0" parent="p0EOxhNkVSFKZl7nwKyP-9">
          <mxGeometry x="-0.0186" y="-3" relative="1" as="geometry">
            <mxPoint as="offset" />
          </mxGeometry>
        </mxCell>
        <mxCell id="p0EOxhNkVSFKZl7nwKyP-7" value=":BD_Contratos" style="html=1;whiteSpace=wrap;" vertex="1" parent="1">
          <mxGeometry x="300" y="330" width="120" height="50" as="geometry" />
        </mxCell>
      </root>
    </mxGraphModel>
  </diagram>
</mxfile>
